<?xml version="1.0" encoding="UTF-8"?><svg id="uuid-eb6d06e5-1db4-4d3c-905e-32a4d4ffdb06" xmlns="http://www.w3.org/2000/svg" width="1498.5448" height="254.6972" viewBox="0 0 1498.5448 254.6972"><defs><style>.uuid-f298c06c-14b1-45b6-9f86-fa281af2993f{fill:#f7f8fc;}</style></defs><g id="uuid-5e1efe7c-e247-4d5b-bd08-6b4deff584d9"><path class="uuid-f298c06c-14b1-45b6-9f86-fa281af2993f" d="M0,254.6972V42.4491h38.7713l3.6787,23.7724c5.4694-9.0566,12.6371-15.9897,21.5077-20.8002,8.8659-4.8115,18.3945-7.2163,28.5829-7.2163,14.3353,0,26.7874,3.5853,37.3553,10.7539,10.5641,7.1715,18.7711,17.0767,24.621,29.7147,5.8451,12.6418,8.7724,27.2642,8.7724,43.8641,0,15.2822-2.1712,28.2997-6.5088,39.0536-4.3424,10.7539-10.095,19.5759-17.2626,26.4603-7.1724,6.8892-15.0962,11.9343-23.7714,15.1401-8.6809,3.2058-17.2636,4.8115-25.7528,4.8115-8.8707,0-17.1215-1.6982-24.7631-5.0937-7.6406-3.3965-14.1055-8.3929-19.3852-14.999v66.7869H0ZM80.3717,170.3646c11.1296,0,19.9506-4.104,26.4603-12.311,6.5088-8.207,9.7632-19.3852,9.7632-33.5345s-3.2544-25.3724-9.7632-33.6766c-6.5097-8.3004-15.3308-12.4521-26.4603-12.4521-10.5689,0-18.9609,4.1517-25.1874,12.4521-6.2256,8.3043-9.3388,19.5263-9.3388,33.6766s3.1133,25.3276,9.3388,33.5345c6.2265,8.207,14.6185,12.311,25.1874,12.311Z"/><path class="uuid-f298c06c-14b1-45b6-9f86-fa281af2993f" d="M245.4686,208.0031c-14.3401,0-27.0258-3.6787-38.0628-11.0371-11.0371-7.3584-19.6684-17.5458-25.8949-30.5634-6.2256-13.0185-9.3388-27.9202-9.3388-44.7137,0-16.414,3.016-30.8914,9.0566-43.4407,6.0358-12.5446,14.3353-22.3564,24.9032-29.4315,10.5641-7.0752,22.733-10.6118,36.5067-10.6118,10.5641,0,19.9516,2.0291,28.1586,6.0844,8.207,4.0592,14.8569,9.6697,19.9516,16.8383l2.5469-18.6786h37.9217v161.3089h-37.9217l-2.5469-21.2245c-4.9088,7.9238-11.3203,14.1494-19.2441,18.6777-7.9238,4.5283-16.6037,6.792-26.036,6.792ZM253.6755,167.8177c10.5641,0,18.9609-4.1478,25.1864-12.4521,6.2265-8.2995,9.3388-19.5273,9.3388-33.6766s-3.1123-25.3285-9.3388-33.5355c-6.2256-8.207-14.6223-12.31-25.1864-12.31-10.7539,0-19.2441,4.103-25.4696,12.31-6.2265,8.207-9.3388,19.3852-9.3388,33.5355s3.1123,25.3771,9.3388,33.6766c6.2256,8.3043,14.7158,12.4521,25.4696,12.4521Z"/><path class="uuid-f298c06c-14b1-45b6-9f86-fa281af2993f" d="M420.4641,207.4548c-8.4902,0-15.4719-3.0198-20.9423-9.0556-5.4742-6.0358-10.9436-16.7897-16.414-32.2625l-44.7137-124.2358h47.2606l34.8094,106.9732,33.9589-106.9732h46.1287l-43.2987,123.6704c-5.4742,15.6617-10.895,26.5576-16.2719,32.6859-5.3769,6.1293-12.2175,9.1977-20.517,9.1977Z"/><rect class="uuid-f298c06c-14b1-45b6-9f86-fa281af2993f" x="508.9469" y="41.9008" width="45.8455" height="161.3089"/><path class="uuid-f298c06c-14b1-45b6-9f86-fa281af2993f" d="M565.8681,203.758v-96.2193c0-13.9596,2.8749-26.221,8.6323-36.7899,5.7526-10.5632,13.7251-18.8626,23.9125-24.9032,10.1884-6.0358,21.8844-9.0556,35.0917-9.0556,11.8867,0,22.8255,2.4534,32.828,7.3574,9.9977,4.9088,18.1122,11.7007,24.3378,20.3759,6.4115-8.6752,14.5746-15.4671,24.4789-20.3759,9.9052-4.904,20.7039-7.3574,32.4037-7.3574,13.2035,0,24.8069,3.0198,34.8085,9.0556,9.9977,6.0406,17.829,14.3401,23.4892,24.9032,5.6601,10.5689,8.4902,22.8303,8.4902,36.7899v96.2193h-46.1287v-96.2193c0-8.6752-2.4544-15.7503-7.3584-21.2245-4.9078-5.4694-11.51-8.207-19.8095-8.207-8.1145,0-14.7644,2.7376-19.9516,8.207-5.191,5.4742-7.7827,12.5494-7.7827,21.2245v96.2193h-45.8455v-96.2193c0-8.6752-2.5955-15.7503-7.7817-21.2245-5.1919-5.4694-11.9353-8.207-20.2348-8.207-8.1145,0-14.7644,2.7376-19.9516,8.207-5.191,5.4742-7.7817,12.5494-7.7817,21.2245v96.2193h-45.8465Z"/><path class="uuid-f298c06c-14b1-45b6-9f86-fa281af2993f" d="M896.5198,207.9994c-14.3401,0-27.0258-3.6787-38.0628-11.0371-11.0371-7.3584-19.6684-17.5458-25.8949-30.5634-6.2256-13.0185-9.3388-27.9202-9.3388-44.7137,0-16.414,3.016-30.8914,9.0566-43.4407,6.0358-12.5446,14.3353-22.3564,24.9032-29.4315,10.5641-7.0752,22.733-10.6118,36.5067-10.6118,10.5641,0,19.9516,2.0291,28.1586,6.0844,8.207,4.0592,14.8569,9.6697,19.9516,16.8383l2.5469-18.6786h37.9217v161.3089h-37.9217l-2.5469-21.2245c-4.9088,7.9238-11.3203,14.1494-19.2441,18.6777-7.9238,4.5283-16.6037,6.792-26.036,6.792ZM904.7268,167.814c10.5641,0,18.9609-4.1478,25.1864-12.4521,6.2265-8.2995,9.3388-19.5273,9.3388-33.6766s-3.1123-25.3285-9.3388-33.5355c-6.2256-8.207-14.6223-12.31-25.1864-12.31-10.7539,0-19.2441,4.103-25.4696,12.31-6.2265,8.207-9.3388,19.3852-9.3388,33.5355s3.1123,25.3771,9.3388,33.6766c6.2256,8.3043,14.7158,12.4521,25.4696,12.4521Z"/><path class="uuid-f298c06c-14b1-45b6-9f86-fa281af2993f" d="M1051.5922,203.758c-13.2082,0-23.82-4.0058-31.8373-12.0278-8.0211-8.0163-12.0278-18.629-12.0278-31.8373v-80.654h-16.5761v-36.7899h16.5761V0h45.8455v42.4491h29.6953v36.7899h-29.6953v72.7302c0,3.5862,1.1328,6.5097,3.3965,8.7734,2.2637,2.2637,5.0937,3.3955,8.4902,3.3955h17.8087v39.62h-31.6758Z"/><path class="uuid-f298c06c-14b1-45b6-9f86-fa281af2993f" d="M1138.0394,153.9915v-28.654h5.9248l8.1106,12.3623,8.1114-12.3623h5.8848v28.654h-5.4073v-19.8951l-8.5888,13.0177-8.5881-12.9754v19.8527h-5.4473Z"/><path class="uuid-f298c06c-14b1-45b6-9f86-fa281af2993f" d="M1171.399,153.9915l10.9738-28.654h5.4473l-10.6563,28.654h-5.7648ZM1176.568,147.688v-4.9534h17.4544v4.9534h-17.4544ZM1193.3866,153.9915l-10.6563-28.654h5.4473l10.9738,28.654h-5.7648Z"/><path class="uuid-f298c06c-14b1-45b6-9f86-fa281af2993f" d="M1208.4553,153.9915v-23.5376h-8.3497v-5.1165h22.1068v5.1165h-8.3097v23.5376h-5.4473Z"/><path class="uuid-f298c06c-14b1-45b6-9f86-fa281af2993f" d="M1227.7788,153.9915v-28.654h17.6144v5.1165h-12.1671v6.5089h10.4971v4.9941h-10.4971v6.9181h12.3262v5.1165h-17.7735Z"/><path class="uuid-f298c06c-14b1-45b6-9f86-fa281af2993f" d="M1253.1855,153.9915v-28.654h10.338c1.9616,0,3.6974.3951,5.209,1.187,1.5108.7919,2.6899,1.8769,3.5382,3.2536.8483,1.3783,1.2724,2.9824,1.2724,4.8107,0,1.8001-.4445,3.4042-1.332,4.8091-.8883,1.4065-2.1011,2.4979-3.6378,3.2756-1.5374.7777-3.2874,1.1666-5.249,1.1666h-4.6915v10.1514h-5.4473ZM1258.6328,138.7221h4.9306c.8209,0,1.5563-.1772,2.2062-.5316.6492-.3544,1.1666-.8452,1.5508-1.4739.3842-.6272.577-1.336.577-2.1278,0-1.2278-.4312-2.225-1.2928-2.9886s-1.9679-1.1462-3.3195-1.1462h-4.6523v8.2682ZM1268.4933,153.9915l-6.4406-11.503,4.1749-3.0702,8.4289,14.5732h-6.1631Z"/><path class="uuid-f298c06c-14b1-45b6-9f86-fa281af2993f" d="M1280.8187,153.9915v-28.654h5.4473v28.654h-5.4473Z"/><path class="uuid-f298c06c-14b1-45b6-9f86-fa281af2993f" d="M1291.5934,153.9915l10.9738-28.654h5.4473l-10.6563,28.654h-5.7648ZM1296.7624,147.688v-4.9534h17.4544v4.9534h-17.4544ZM1313.581,153.9915l-10.6563-28.654h5.4473l10.9738,28.654h-5.7648Z"/><path class="uuid-f298c06c-14b1-45b6-9f86-fa281af2993f" d="M1324.6732,153.9915v-28.654h5.4473v28.654h-5.4473Z"/><path class="uuid-f298c06c-14b1-45b6-9f86-fa281af2993f" d="M1347.4957,154.4823c-1.4049,0-2.7174-.1772-3.9365-.5316-1.2191-.3544-2.3058-.853-3.2599-1.4943s-1.7436-1.3579-2.3661-2.1498c-.6225-.7903-1.0271-1.6229-1.2121-2.4963l5.3274-1.637c.3442.9283.9541,1.7264,1.8291,2.3944.875.6695,1.9741,1.0176,3.2999,1.0443,1.4049.0267,2.5512-.2869,3.4395-.9424.8883-.6539,1.332-1.5006,1.332-2.5371,0-.9016-.3512-1.659-1.0537-2.2721-.7025-.6147-1.6637-1.0851-2.8828-1.4128l-3.6182-.9816c-1.3516-.3544-2.5441-.8938-3.5782-1.6182-1.0333-.7229-1.8424-1.6166-2.4249-2.6813-.5841-1.0631-.875-2.305-.875-3.7241,0-2.7017.8679-4.8107,2.6045-6.3254,1.7358-1.5147,4.1945-2.2705,7.3752-2.2705,1.7758,0,3.3328.265,4.6719.7981,1.3383.5316,2.4587,1.2889,3.3595,2.2705.9008.9831,1.5908,2.1435,2.0682,3.4794l-5.2882,1.6794c-.3183-.9283-.9016-1.7201-1.7499-2.374-.8483-.6554-1.9224-.9831-3.2207-.9831-1.3258,0-2.3654.3136-3.1211.9424-.755.6272-1.1329,1.5131-1.1329,2.6594,0,.9016.2979,1.6119.8946,2.1294.5966.519,1.4112.9142,2.4453,1.187l3.6582.9408c2.385.6021,4.2407,1.6794,5.5665,3.2348,1.325,1.5555,1.9875,3.2881,1.9875,5.198,0,1.6935-.3975,3.1737-1.1925,4.4422-.795,1.2685-1.9483,2.258-3.4591,2.9683-1.5108.7087-3.3399,1.0631-5.4873,1.0631Z"/><path class="uuid-f298c06c-14b1-45b6-9f86-fa281af2993f" d="M1138.0394,203.1129v-28.654h8.9064c2.8366,0,5.3477.6131,7.5351,1.8424,2.1866,1.2278,3.8965,2.9134,5.129,5.0553s1.8487,4.6194,1.8487,7.4293c0,2.7832-.6162,5.2529-1.8487,7.4089-1.2325,2.156-2.9424,3.8479-5.129,5.0757-2.1874,1.2278-4.6986,1.8424-7.5351,1.8424h-8.9064ZM1143.4867,197.8726h3.4591c1.2724,0,2.4516-.2305,3.539-.6946,1.0866-.4641,2.0337-1.1055,2.8428-1.924.8083-.8185,1.4379-1.7813,1.8887-2.8867.45-1.1055.6758-2.2987.6758-3.5814s-.2258-2.4775-.6758-3.5814c-.4508-1.1055-1.0804-2.0682-1.8887-2.8867-.8091-.8185-1.7562-1.4598-2.8428-1.924-1.0874-.4641-2.2666-.6962-3.539-.6962h-3.4591v18.1749Z"/><path class="uuid-f298c06c-14b1-45b6-9f86-fa281af2993f" d="M1167.86,203.1129v-28.654h17.6144v5.1165h-12.1671v6.5089h10.4971v4.9941h-10.4971v6.9181h12.3262v5.1165h-17.7735Z"/><path class="uuid-f298c06c-14b1-45b6-9f86-fa281af2993f" d="M1217.0034,203.6037c-2.7041,0-5.1031-.6335-7.1964-1.9036-2.0949-1.2685-3.7374-3.0153-4.9306-5.2388-1.1925-2.225-1.7891-4.7825-1.7891-7.6755s.5966-5.4504,1.7891-7.6755c1.1933-2.2235,2.8295-3.9702,4.9103-5.2403,2.0808-1.2685,4.4736-1.902,7.1768-1.902,1.9091,0,3.6841.3465,5.3281,1.0427,1.6433.6962,3.0812,1.6652,4.3144,2.9071,1.2325,1.2419,2.1796,2.6672,2.8428,4.2776l-5.0498,1.924c-.4508-1.0098-1.0474-1.8895-1.7891-2.6405-.7425-.7511-1.5908-1.3375-2.5449-1.7609-.9541-.4218-1.9883-.6335-3.1015-.6335-1.6166,0-3.0553.4155-4.3136,1.2481-1.2591.8326-2.2407,1.9726-2.9424,3.4183-.7025,1.4473-1.0537,3.1251-1.0537,5.0349s.3575,3.5955,1.0733,5.0553c.7158,1.4598,1.7099,2.6061,2.9824,3.4387,1.2724.8326,2.7299,1.2481,4.3732,1.2481,1.14,0,2.1803-.2242,3.1219-.6758.94-.45,1.775-1.0694,2.5049-1.8612.7283-.7919,1.3179-1.706,1.7687-2.744l5.0498,1.8832c-.6625,1.6652-1.6104,3.1392-2.8428,4.4218-1.2325,1.2826-2.6711,2.2783-4.3144,2.9886-1.6433.7087-3.4324,1.0631-5.3673,1.0631Z"/><path class="uuid-f298c06c-14b1-45b6-9f86-fa281af2993f" d="M1248.2548,203.6037c-2.8099,0-5.2952-.6335-7.4552-1.9036-2.1607-1.2685-3.8503-3.0153-5.0694-5.2388-1.2199-2.225-1.8291-4.7825-1.8291-7.6755s.6092-5.4504,1.8291-7.6755c1.2191-2.2235,2.8954-3.964,5.0294-5.2184,2.1333-1.256,4.5927-1.8832,7.376-1.8832s5.2482.6335,7.3956,1.9036c2.1466,1.2685,3.8299,3.0153,5.049,5.2388,1.2191,2.225,1.8291,4.7825,1.8291,7.6755,0,2.8648-.6029,5.4097-1.8087,7.6347-1.2066,2.2235-2.8695,3.9702-4.9902,5.2388-2.1207,1.2701-4.5724,1.9036-7.3556,1.9036ZM1248.2548,198.4872c1.6699,0,3.1541-.4155,4.4532-1.2481,1.2983-.8326,2.312-1.9788,3.042-3.4387.7283-1.4598,1.0929-3.1313,1.0929-5.0145s-.3716-3.5469-1.1133-4.9941c-.7425-1.4457-1.7632-2.5857-3.0616-3.4183-1.2991-.8326-2.8099-1.2481-4.5324-1.2481-1.6699,0-3.1611.4155-4.4736,1.2481-1.3117.8326-2.3395,1.9726-3.0812,3.4183-.7425,1.4473-1.1133,3.1251-1.1133,5.0349,0,1.8832.3708,3.5484,1.1133,4.9941.7417,1.4473,1.7758,2.5857,3.1015,3.4183,1.325.8326,2.8491,1.2481,4.5724,1.2481Z"/><path class="uuid-f298c06c-14b1-45b6-9f86-fa281af2993f" d="M1268.81,203.1129v-28.654h5.6856l13.5987,19.2396v-19.2396h5.4073v28.654h-5.4073l-13.837-19.6081v19.6081h-5.4473Z"/><path class="uuid-f298c06c-14b1-45b6-9f86-fa281af2993f" d="M1310.8769,203.6037c-1.4049,0-2.7174-.1772-3.9365-.5316-1.2191-.3544-2.3058-.853-3.2599-1.4943-.9541-.6413-1.7436-1.3579-2.3661-2.1498-.6225-.7903-1.0271-1.6229-1.2121-2.4963l5.3274-1.637c.3442.9283.9541,1.7264,1.8291,2.3944.875.6695,1.9741,1.0176,3.2999,1.0443,1.4049.0267,2.5512-.2869,3.4395-.9424.8883-.6539,1.332-1.5006,1.332-2.5371,0-.9016-.3512-1.659-1.0537-2.2721-.7025-.6147-1.6637-1.0851-2.8828-1.4128l-3.6182-.9816c-1.3516-.3544-2.5441-.8938-3.5782-1.6182-1.0333-.7229-1.8424-1.6166-2.4249-2.6813-.5841-1.0631-.875-2.305-.875-3.7241,0-2.7017.8679-4.8107,2.6045-6.3254,1.7358-1.5147,4.1945-2.2705,7.3752-2.2705,1.7758,0,3.3328.265,4.6719.7981,1.3383.5316,2.4587,1.2889,3.3595,2.2705.9008.9831,1.5908,2.1435,2.0682,3.4794l-5.2882,1.6794c-.3183-.9283-.9016-1.7201-1.7499-2.374-.8483-.6554-1.9224-.9831-3.2207-.9831-1.3258,0-2.3654.3136-3.1211.9424-.755.6272-1.1329,1.5131-1.1329,2.6594,0,.9016.2979,1.6119.8946,2.1294.5966.519,1.4112.9142,2.4453,1.187l3.6582.9408c2.385.6021,4.2407,1.6794,5.5665,3.2348,1.325,1.5555,1.9875,3.2881,1.9875,5.198,0,1.6935-.3975,3.1737-1.1925,4.4422-.795,1.2685-1.9483,2.258-3.4591,2.9683-1.5108.7087-3.3399,1.0631-5.4873,1.0631Z"/><path class="uuid-f298c06c-14b1-45b6-9f86-fa281af2993f" d="M1333.5403,203.1129v-23.5376h-8.3497v-5.1165h22.1068v5.1165h-8.3097v23.5376h-5.4473Z"/><path class="uuid-f298c06c-14b1-45b6-9f86-fa281af2993f" d="M1352.8631,203.1129v-28.654h10.338c1.9616,0,3.6974.3951,5.209,1.187,1.5108.7919,2.6899,1.8769,3.5382,3.2536.8483,1.3783,1.2724,2.9824,1.2724,4.8107,0,1.8001-.4445,3.4042-1.332,4.8091-.8883,1.4065-2.1011,2.4979-3.6378,3.2756-1.5374.7777-3.2874,1.1666-5.249,1.1666h-4.6915v10.1514h-5.4473ZM1358.3104,187.8435h4.9306c.8209,0,1.5563-.1772,2.2062-.5316.6492-.3544,1.1666-.8452,1.5508-1.4739.3842-.6272.577-1.336.577-2.1278,0-1.2278-.4312-2.225-1.2928-2.9886-.8616-.7636-1.9679-1.1462-3.3195-1.1462h-4.6523v8.2682ZM1368.1709,203.1129l-6.4406-11.503,4.1749-3.0702,8.4289,14.5732h-6.1631Z"/><path class="uuid-f298c06c-14b1-45b6-9f86-fa281af2993f" d="M1391.3909,203.6852c-2.3058,0-4.3081-.4641-6.004-1.3908-1.6966-.9283-3.002-2.2313-3.9161-3.9091-.9149-1.6794-1.372-3.6645-1.372-5.9569v-17.9695h5.4473v17.9695c0,1.2293.2446,2.3003.7354,3.2144.49.9142,1.1792,1.6166,2.0674,2.1074.8883.4908,1.9287.737,3.1211.737,1.1933,0,2.2329-.2462,3.1219-.737.8875-.4908,1.5766-1.1933,2.0674-2.1074.49-.9142.7354-1.9851.7354-3.2144v-17.9695h5.4473v17.9695c0,2.2924-.4712,4.2776-1.412,5.9569-.9408,1.6778-2.2658,2.9808-3.9757,3.9091-1.7099.9267-3.7311,1.3908-6.0635,1.3908Z"/><path class="uuid-f298c06c-14b1-45b6-9f86-fa281af2993f" d="M1422.7615,203.6037c-2.7041,0-5.1031-.6335-7.1964-1.9036-2.0949-1.2685-3.7374-3.0153-4.9306-5.2388-1.1925-2.225-1.7891-4.7825-1.7891-7.6755s.5966-5.4504,1.7891-7.6755c1.1933-2.2235,2.8295-3.9702,4.9103-5.2403,2.0808-1.2685,4.4736-1.902,7.1768-1.902,1.9091,0,3.6841.3465,5.3281,1.0427,1.6433.6962,3.0812,1.6652,4.3144,2.9071,1.2325,1.2419,2.1796,2.6672,2.8428,4.2776l-5.0498,1.924c-.4508-1.0098-1.0474-1.8895-1.7891-2.6405-.7425-.7511-1.5908-1.3375-2.5449-1.7609-.9541-.4218-1.9883-.6335-3.1015-.6335-1.6166,0-3.0553.4155-4.3136,1.2481-1.2591.8326-2.2407,1.9726-2.9424,3.4183-.7025,1.4473-1.0537,3.1251-1.0537,5.0349s.3575,3.5955,1.0733,5.0553c.7158,1.4598,1.7099,2.6061,2.9824,3.4387,1.2724.8326,2.7299,1.2481,4.3732,1.2481,1.14,0,2.1803-.2242,3.1219-.6758.94-.45,1.775-1.0694,2.5049-1.8612.7283-.7919,1.3179-1.706,1.7687-2.744l5.0498,1.8832c-.6625,1.6652-1.6104,3.1392-2.8428,4.4218-1.2325,1.2826-2.6711,2.2783-4.3144,2.9886-1.6433.7087-3.4324,1.0631-5.3673,1.0631ZM1421.0916,211.7088c-.5833,0-1.1925-.0956-1.8291-.2854-.6358-.1913-1.2991-.4924-1.9883-.9016l.7958-2.5778c.3975.218.7879.3951,1.1729.5316.3834.1364.7354.2038,1.0537.2038.45,0,.835-.0815,1.1525-.2446.3183-.1646.4775-.45.4775-.8593,0-.5472-.2187-.9565-.6562-1.2293s-1.0804-.4359-1.9279-.4908l1.1925-2.9886,3.0216.2462-.5167,1.187c.9275.3277,1.6237.7981,2.0878,1.4128.4634.6131.6954,1.2889.6954,2.0259,0,1.1729-.3975,2.1278-1.1925,2.8648-.7958.737-1.9749,1.1055-3.539,1.1055Z"/><path class="uuid-f298c06c-14b1-45b6-9f86-fa281af2993f" d="M1438.5868,203.1129l10.9738-28.654h5.4473l-10.6563,28.654h-5.7648ZM1443.7558,196.8094v-4.9534h17.4544v4.9534h-17.4544ZM1455.7237,172.9442c-.875,0-1.5712-.1505-2.0878-.45-.5167-.3011-.9212-.6413-1.2129-1.0239-.2917-.381-.57-.7229-.835-1.0239-.265-.2995-.5958-.45-.9941-.45-.3175,0-.5896.0956-.8146.2869-.2258.1913-.4179.6147-.577,1.2685h-3.5382c.1325-1.118.3904-2.0525.7754-2.8036.3834-.7495.9142-1.3156,1.59-1.6982.6766-.3826,1.4779-.5739,2.4061-.5739.9275,0,1.6496.1505,2.167.45.5167.3011.9338.6413,1.2521,1.0239s.6092.7229.875,1.0239c.2642.2995.5958.45.9941.45.3975,0,.6821-.1505.8546-.45.1717-.3011.2846-.6821.3379-1.1462h3.539c-.1858,1.5288-.6562,2.7629-1.412,3.7037-.755.9424-1.862,1.4128-3.3195,1.4128ZM1460.5744,203.1129l-10.6563-28.654h5.4473l10.9738,28.654h-5.7648Z"/><path class="uuid-f298c06c-14b1-45b6-9f86-fa281af2993f" d="M1484.3903,203.6037c-2.8099,0-5.2952-.6335-7.4552-1.9036-2.1607-1.2685-3.8503-3.0153-5.0694-5.2388-1.2199-2.225-1.8291-4.7825-1.8291-7.6755s.6092-5.4504,1.8291-7.6755c1.2191-2.2235,2.8954-3.964,5.0294-5.2184,2.1333-1.256,4.5927-1.8832,7.376-1.8832s5.2482.6335,7.3956,1.9036c2.1466,1.2685,3.8299,3.0153,5.049,5.2388,1.2191,2.225,1.8291,4.7825,1.8291,7.6755,0,2.8648-.6029,5.4097-1.8087,7.6347-1.2066,2.2235-2.8695,3.9702-4.9902,5.2388-2.1207,1.2701-4.5724,1.9036-7.3556,1.9036ZM1484.3903,198.4872c1.6699,0,3.1541-.4155,4.4532-1.2481,1.2983-.8326,2.312-1.9788,3.042-3.4387.7283-1.4598,1.0929-3.1313,1.0929-5.0145s-.3716-3.5469-1.1133-4.9941c-.7425-1.4457-1.7632-2.5857-3.0616-3.4183-1.2991-.8326-2.8099-1.2481-4.5324-1.2481-1.6699,0-3.1611.4155-4.4736,1.2481-1.3117.8326-2.3395,1.9726-3.0812,3.4183-.7425,1.4473-1.1133,3.1251-1.1133,5.0349,0,1.8832.3708,3.5484,1.1133,4.9941.7417,1.4473,1.7758,2.5857,3.1015,3.4183,1.325.8326,2.8491,1.2481,4.5724,1.2481Z"/></g></svg>