<?xml version="1.0" encoding="UTF-8"?><svg id="uuid-f3c003c5-3308-4c12-81fd-681177c94a7b" xmlns="http://www.w3.org/2000/svg" width="1273.8298" height="299.502" viewBox="0 0 1273.8298 299.502"><defs><style>.uuid-75eac447-457e-4f82-94ca-7baa9787b3fc{fill:#fff;}</style></defs><g id="uuid-59cf0bc5-d73f-4e46-a705-0659f52992da"><path class="uuid-75eac447-457e-4f82-94ca-7baa9787b3fc" d="M0,299.502V49.9164h45.5917l4.3258,27.9542c6.4316-10.6498,14.8601-18.8025,25.2912-24.4593,10.4255-5.6579,21.6303-8.4857,33.611-8.4857,16.8571,0,31.4997,4.216,43.9266,12.6456,12.4225,8.433,22.0732,20.0807,28.9522,34.942,6.8733,14.8657,10.3156,32.0603,10.3156,51.5804,0,17.9705-2.5531,33.278-7.6537,45.9236-5.1062,12.6456-11.8708,23.0196-20.2994,31.1151-8.4341,8.1011-17.7519,14.0337-27.9531,17.8034-10.208,3.7697-20.3005,5.6579-30.2831,5.6579-10.4311,0-20.1334-1.997-29.1192-5.9898-8.9847-3.9939-16.5869-9.8694-22.7953-17.6375v78.5356H0ZM94.5102,200.334c13.0874,0,23.4602-4.8259,31.1151-14.4766,7.6537-9.6507,11.4806-22.7953,11.4806-39.4337s-3.8269-29.8357-11.4806-39.6008c-7.6549-9.7606-18.0277-14.6426-31.1151-14.6426-12.4281,0-22.2963,4.882-29.6182,14.6426-7.3207,9.7651-10.9817,22.9612-10.9817,39.6008s3.6609,29.783,10.9817,39.4337c7.3219,9.6507,17.1901,14.4766,29.6182,14.4766Z"/><path class="uuid-75eac447-457e-4f82-94ca-7baa9787b3fc" d="M288.6499,244.5937c-16.8627,0-31.78-4.3258-44.7586-12.9786-12.9786-8.6528-23.1283-20.6324-30.4502-35.9399-7.3207-15.3086-10.9817-32.8317-10.9817-52.5794,0-19.3014,3.5466-36.3256,10.6498-51.0826,7.0976-14.7514,16.8571-26.2892,29.2841-34.6089,12.4225-8.3198,26.7321-12.4785,42.9287-12.4785,12.4225,0,23.4613,2.3861,33.1121,7.1548,9.6507,4.7732,17.4704,11.3707,23.4613,19.8004l2.9949-21.9644h44.5927v189.6854h-44.5927l-2.9949-24.9582c-5.7723,9.3177-13.3116,16.6384-22.6294,21.9633s-19.5246,7.9868-30.6161,7.9868ZM298.3006,197.3391c12.4225,0,22.2963-4.8775,29.6171-14.6426,7.3219-9.7595,10.9817-22.9624,10.9817-39.6008s-3.6598-29.7841-10.9817-39.4349c-7.3207-9.6507-17.1946-14.4755-29.6171-14.4755-12.6456,0-22.6294,4.8248-29.9501,14.4755-7.3219,9.6507-10.9817,22.7953-10.9817,39.4349s3.6598,29.8413,10.9817,39.6008c7.3207,9.7651,17.3045,14.6426,29.9501,14.6426Z"/><path class="uuid-75eac447-457e-4f82-94ca-7baa9787b3fc" d="M494.4295,243.949c-9.9837,0-18.1936-3.551-24.6263-10.6486-6.4372-7.0976-12.8687-19.7432-19.3014-37.938l-52.5794-146.0906h55.5743l40.9329,125.7913,39.9327-125.7913h54.2434l-50.9155,145.4257c-6.4372,18.4168-12.8116,31.2294-19.1344,38.4358-6.3228,7.2075-14.3668,10.8157-24.1262,10.8157Z"/><rect class="uuid-75eac447-457e-4f82-94ca-7baa9787b3fc" x="598.4777" y="49.2717" width="53.9104" height="189.6854"/><path class="uuid-75eac447-457e-4f82-94ca-7baa9787b3fc" d="M665.412,239.6018v-113.1456c0-16.4153,3.3806-30.8336,10.1508-43.2617,6.7646-12.4214,16.1395-22.1808,28.1191-29.2841,11.9807-7.0976,25.7341-10.6486,41.2648-10.6486,13.9777,0,26.8408,2.885,38.6029,8.6517,11.7565,5.7723,21.2984,13.759,28.6191,23.9603,7.5394-10.2013,17.1385-18.188,28.7851-23.9603,11.6477-5.7667,24.346-8.6517,38.1039-8.6517,15.5261,0,29.1708,3.551,40.9317,10.6486,11.7565,7.1032,20.9654,16.8627,27.6212,29.2841,6.6558,12.4281,9.9837,26.8464,9.9837,43.2617v113.1456h-54.2434v-113.1456c0-10.2013-2.8861-18.521-8.6528-24.9582-5.7711-6.4316-13.5348-9.6507-23.2943-9.6507-9.542,0-17.3617,3.2191-23.4613,9.6507-6.1042,6.4372-9.1518,14.757-9.1518,24.9582v113.1456h-53.9104v-113.1456c0-10.2013-3.0521-18.521-9.1506-24.9582-6.1053-6.4316-14.0349-9.6507-23.7943-9.6507-9.542,0-17.3617,3.2191-23.4613,9.6507-6.1042,6.4372-9.1506,14.757-9.1506,24.9582v113.1456h-53.9115Z"/><path class="uuid-75eac447-457e-4f82-94ca-7baa9787b3fc" d="M1054.23,244.5893c-16.8627,0-31.78-4.3258-44.7586-12.9786-12.9786-8.6528-23.1283-20.6324-30.4502-35.9399-7.3207-15.3086-10.9817-32.8317-10.9817-52.5794,0-19.3014,3.5466-36.3256,10.6498-51.0826,7.0976-14.7514,16.8571-26.2892,29.2841-34.6089,12.4225-8.3198,26.7321-12.4785,42.9287-12.4785,12.4225,0,23.4613,2.3861,33.1121,7.1548,9.6507,4.7732,17.4704,11.3707,23.4613,19.8004l2.9949-21.9644h44.5927v189.6854h-44.5927l-2.9949-24.9582c-5.7723,9.3177-13.3116,16.6384-22.6294,21.9633-9.3177,5.3249-19.5246,7.9868-30.6161,7.9868ZM1063.8807,197.3348c12.4225,0,22.2963-4.8775,29.6171-14.6426,7.3219-9.7595,10.9817-22.9624,10.9817-39.6008s-3.6598-29.7841-10.9817-39.4349c-7.3207-9.6507-17.1946-14.4755-29.6171-14.4755-12.6456,0-22.6294,4.8248-29.9501,14.4755-7.3219,9.6507-10.9817,22.7953-10.9817,39.4349s3.6598,29.8413,10.9817,39.6008c7.3207,9.7651,17.3045,14.6426,29.9501,14.6426Z"/><path class="uuid-75eac447-457e-4f82-94ca-7baa9787b3fc" d="M1236.5818,239.6018c-15.5318,0-28.0103-4.7104-37.4379-14.1436-9.4321-9.4265-14.1436-21.9061-14.1436-37.4379v-94.8421h-19.492v-43.2617h19.492V0h53.9104v49.9164h34.9192v43.2617h-34.9192v85.5244c0,4.2171,1.3321,7.6549,3.9939,10.3168,2.6619,2.6619,5.9898,3.9928,9.9837,3.9928h20.9415v46.5896h-37.248Z"/></g></svg>